<svg width="24" height="24" viewBox="0 0 24 24" fill="none" xmlns="http://www.w3.org/2000/svg">
<g clip-path="url(#clip0_3_1540)">
<path d="M8.99997 0C7.34997 0 5.99997 1.35 5.99997 3V6H0.269971C0.0899707 6 -2.92975e-05 6.12 -2.92975e-05 6.27V13.5C-2.92975e-05 14.34 0.659971 15 1.49997 15H22.5C23.34 15 24 14.34 24 13.5V6.27C24 6.09 23.88 6 23.73 6H18V3C18 1.35 16.65 0 15 0H8.99997V0ZM8.99997 3H15V6H8.99997V3ZM-2.92975e-05 17.73V23.73C-2.92975e-05 23.88 0.119971 24 0.269971 24H23.7C23.85 24 23.97 23.88 23.97 23.73V17.73C23.49 17.91 23.01 18 22.47 18H1.46997C0.929971 18 0.449971 17.88 -0.0300293 17.73H-2.92975e-05Z" fill="black"/>
</g>
<defs>
<clipPath id="clip0_3_1540">
<rect width="24" height="24" fill="white"/>
</clipPath>
</defs>
</svg>
